<?xml version="1.0" encoding="UTF-8"?>
<svg id="_圖層_1" data-name="圖層 1" xmlns="http://www.w3.org/2000/svg" viewBox="0 0 3500 1779.31">
  <defs>
    <style>
      .cls-1 {
        fill: #333232;
      }
    </style>
  </defs>
  <path class="cls-1" d="M2290,1515.06l333.59,146.4-75.49-11.85,47.64,41.78-21.81,12.22-51.66-12.22,13.94,24.11h-25.83v15.99s-136.85-34.1-252.22-108.23l-43.58-19.98h55.54l-69.56-34.07h67.58l-3.88-25.94,25.73-28.21Z"/>
  <path class="cls-1" d="M3096.2,496.89l309.74-164.4s-349.77,131.03-472.05,139.77c-6.07.58-11.56.73-16.46.58-103.3-4.06,287.38-53.75,414.46-246.14,127.12-192.54-30.26-11.01-30.26-11.01l-435.79,225.17,226.38-148.48,111.16-188.44-373.26,316.65-95.35,44.2,103.22-92.28,131.14-168.28,47.64-156.42-222.47,308.79s-126.97,132.17-186.68,144.13c0,0,174.83-192.36,182.84-336.63l-123.13,208.42s-135.09,172.42-166.89,192.39c-31.76,20.05-305.75,120.38-305.75,120.38l-484.49,280.58-194.55,88.15-190.69-3.99-329.57-132.31-162.81-69.01-21.64-15.73-97.44-39.45-52.23-32.89-56.24-32.89-22.62-26.34-174.68-100.33-57.48-34.61-41.88-33.59-214.29-200.37,59.48,176.4-59.48-27.99,29.71,124.19-29.71-28.03,91.3,136.12,162.68,120.38,254.21,60.04,357.45,140.44,170.67,19.98s-103.28,20.05-158.8,28.1c-55.62,8.01-87.38,32.05-87.38,32.05l-19.81,72.19h123.05l194.68,100.11,317.66,220.5,563.8,108.31h23.89l47.71,34.32h67.4l-95.24-70.48,75.41-24.04-39.7-44.09,59.53-40.03v-84.27l31.8-36.04,154.92-80.13h146.91l111.24-140.29,47.57-4.06,170.8-88.15v-46.98l79.44-73.33-119.17-16.02,119.17-12.08,59.53-78.74,123.13-45.45v-16.02l91.44-44.06-31.91-12.07,115.26-52.14-115.26-8.09,154.96-76.11-166.89-7.98,230.41-100.22-309.74,48.15ZM1082.48,1124.38c-23.38,0-50.86-23.46-50.86-23.46l86.61-12.55s-12.29,36-35.75,36Z"/>
</svg>