<?xml version="1.0" encoding="UTF-8"?>
<svg id="_圖層_1" data-name="圖層 1" xmlns="http://www.w3.org/2000/svg" viewBox="0 0 2000 2000">
  <defs>
    <style>
      .cls-1 {
        fill: #fff;
      }

      .cls-2 {
        fill: #333232;
      }
    </style>
  </defs>
  <g>
    <path class="cls-1" d="M1000,1966c-130.42,0-256.93-25.54-376-75.9-115.03-48.65-218.34-118.31-307.07-207.04-88.73-88.73-158.38-192.04-207.04-307.06-50.36-119.07-75.9-245.58-75.9-376s25.54-256.93,75.9-376c48.65-115.03,118.31-218.34,207.04-307.06,88.73-88.73,192.04-158.38,307.07-207.04,119.07-50.36,245.58-75.9,376-75.9s256.93,25.54,376,75.9c115.03,48.65,218.34,118.31,307.07,207.04,88.73,88.73,158.38,192.04,207.04,307.06,50.36,119.07,75.9,245.58,75.9,376s-25.54,256.93-75.9,376c-48.65,115.03-118.31,218.34-207.04,307.06-88.73,88.73-192.04,158.38-307.07,207.04-119.07,50.36-245.58,75.9-376,75.9Z"/>
    <path class="cls-2" d="M1000,68c63.28,0,126.5,6.37,187.9,18.94,59.81,12.24,118.64,30.5,174.85,54.28,55.21,23.35,108.47,52.26,158.29,85.92,49.37,33.35,95.79,71.65,137.98,113.85,42.19,42.19,80.5,88.62,113.85,137.98,33.66,49.82,62.57,103.08,85.92,158.29,23.78,56.22,42.04,115.04,54.28,174.85,12.56,61.4,18.94,124.62,18.94,187.9s-6.37,126.5-18.94,187.9c-12.24,59.81-30.5,118.64-54.28,174.85-23.35,55.21-52.26,108.47-85.92,158.29-33.35,49.37-71.65,95.79-113.85,137.98-42.19,42.19-88.61,80.5-137.98,113.85-49.82,33.66-103.08,62.57-158.29,85.92-56.22,23.78-115.04,42.04-174.85,54.28-61.4,12.56-124.62,18.94-187.9,18.94s-126.5-6.37-187.9-18.94c-59.81-12.24-118.64-30.5-174.85-54.28-55.21-23.35-108.47-52.26-158.29-85.92-49.37-33.35-95.79-71.65-137.98-113.85-42.19-42.19-80.5-88.62-113.85-137.98-33.66-49.82-62.57-103.08-85.92-158.29-23.78-56.22-42.04-115.04-54.28-174.85-12.57-61.4-18.94-124.62-18.94-187.9s6.37-126.5,18.94-187.9c12.24-59.81,30.5-118.64,54.28-174.85,23.35-55.21,52.26-108.47,85.92-158.29,33.35-49.37,71.65-95.79,113.85-137.98,42.19-42.19,88.61-80.5,137.98-113.85,49.82-33.66,103.08-62.57,158.29-85.92,56.22-23.78,115.04-42.04,174.85-54.28,61.4-12.57,124.62-18.94,187.9-18.94M1000,0C447.72,0,0,447.72,0,1000s447.72,1000,1000,1000,1000-447.72,1000-1000S1552.28,0,1000,0h0Z"/>
  </g>
  <path class="cls-2" d="M617.24,822.24c0,13.92,4.42,34.1,12.68,44.4-8.27,3.85-68.5-20.82-76.11-25.37-54.69-32.67-50.68-24.98-101.48-63.42-25.26-19.12-69.24-57.43-90.08-81.39-16.29-18.73-24.56-45.79-34.14-68.71-20.23-48.44-9.33-120.89,31.08-156.43,37.37-32.86,103.38-43.8,139.7-4.05,11.98,13.11,21.24,28.71,32.05,42.77,5.3-23.45,17.16-48.49,36.19-63.71,28.43-22.74,64.12-30.39,99.6-24.54,92.2,15.19,111.41,90.97,86.28,172.12-15.02,48.5-43.84,90.19-77.97,127.22-29.34,31.83-57.8,63.06-57.8,101.11Z"/>
  <path class="cls-2" d="M1593.84,500.23c-15.26-3.52-35.91-2.36-50.87-6.85-12.49-3.74-30.7-15.45-43.54-20.01-92.05-32.71-192.48-42.76-270.03,26.78-53.9,48.33-63.08,111.39-105.74,165.87-20.25,25.85-42.64,49.09-66.36,70.7-17.43-12.81-35.47-24.44-54.15-34.45-140.17-75.08-309.27-57.66-459.33-28.77l-2.4,7.95c103.09,57.81,185.54,147.02,250.41,245.23-57.37,40.93-111.2,85.91-154.68,143.09-116.13,152.69-120.9,320.13-165.67,497.47-4.4,17.44-15.94,40.31-18.12,56.73-.39,2.92-.5,6.68,2.25,8.34,4.57,2.77,63.1-5.98,74.31-6.7,69.81-4.48,144.67-5.22,214.3,2.58,6.62.74,37.23,7.61,50.39,8.4l16.81-77.32c-13.36-6.43-78.68-12.35-93.34-13.52-52.22-4.19-105.45-.54-157.22-4.72,12.51-60.77,21.48-122.82,38.98-182.33,10.57-65.65,34.61-131.43,67.77-189.03,54.98-95.48,135.95-155.95,221.42-212.9-.49-.52-.93-1.09-1.41-1.62.01,0,.06,0,.07,0,3.64-2.09,2.35-5.15,1.67-8.29-3.5-16.27-32.31-66.18-42.47-82.04-31.17-48.62-73.04-81.71-104.5-125.08-9.43-13,3.6-13.23,15.62-14.06,177.7-12.21,296.53,91.3,394.76,227.91,7.96,11.06,17.64,20.15,35.31,52.59l114.16,38.05c-43.71-64.52-36.99-68.29-69.21-116.12-32.97-48.95-72.11-98.51-116.64-141.4l108.2-116.12c21.55-85.8,66-152.21,168.56-142.15,9.93.97,58.18,7.61,60.48,14.87-13.2,25.48-31.43,48.23-42.23,75.17-37.88,94.57-35.39,197.22-50.89,296.13-26.55,169.47-73.07,294.05-204.29,408.05-90.28,78.43-276.27,167.28-288.52,300.09l113.74-58.95c50.47-60.59,142.88-113.46,183.81-146.05,170.19-135.52,241.13-260.65,274.89-478.16,14.53-93.67,8.21-266.96,74.98-335.58,46.99-48.29,98.89-47.31,159.37-57.96,3.59-.63,7.03,2.09,7.34-3.9.63-12.39-74.88-38.91-87.96-41.92Z"/>
</svg>